<?xml version="1.0" encoding="UTF-8"?>
<svg id="Layer_1" xmlns="http://www.w3.org/2000/svg" version="1.1" viewBox="0 0 304.12 253.61">
  <!-- Generator: Adobe Illustrator 30.3.0, SVG Export Plug-In . SVG Version: 2.1.3 Build 182)  -->
  <defs>
    <style>
      .st0 {
        fill: #9b6c49;
      }

      .st1 {
        fill: #e5802e;
      }

      .st2 {
        fill: #fff;
      }
    </style>
  </defs>
  <g>
    <path d="M287.82,125.78c0,8.49,0,16.97,0,25.46,0,2.04.04,4.09-.16,6.11-.63,6.24-3.69,11.12-8.65,14.85-2.56,1.92-5.42,3.26-8.58,3.84-1.18.22-2.39.34-3.59.35-2.45.04-4.91.04-7.36-.06-1.34-.06-2.09.42-2.73,1.61-1.89,3.52-3.83,7.01-5.91,10.41-3.6,5.87-7.9,11.21-12.56,16.27-6.2,6.73-13.09,12.64-20.67,17.78-10.37,7.04-21.5,12.48-33.51,16.07-4.5,1.34-9.11,2.29-13.76,3.03-7.13,1.12-14.29,1.62-21.51,1.46-4.37-.1-8.71-.5-13.05-1.06-6.53-.84-12.95-2.22-19.22-4.23-8.11-2.59-15.84-6.04-23.21-10.32-8.13-4.72-15.72-10.16-22.52-16.65-8.24-7.86-15.16-16.77-20.91-26.59-1.18-2.01-2.35-4.02-3.43-6.08-.63-1.2-1.42-1.8-2.84-1.73-2.12.11-4.24-.02-6.36.07-3.89.17-7.38-.99-10.66-2.96-3.85-2.32-6.74-5.51-8.58-9.62-1.17-2.62-1.75-5.37-1.76-8.23,0-4.99-.02-9.98-.02-14.98,0-14.56,0-29.12.01-43.68,0-2.94.43-5.8,1.59-8.53,1.99-4.68,5.3-8.08,9.87-10.3,2.76-1.33,5.64-1.92,8.69-1.85,2.95.07,5.91,0,8.86.03.97.01,1.59-.32,2.1-1.2,3.86-6.67,8.11-13.07,12.97-19.07,7.46-9.22,16.05-17.19,26.01-23.67,9.62-6.25,19.85-11.18,30.83-14.49,6.5-1.96,13.14-3.3,19.89-4.11,7.29-.88,14.59-1.17,21.92-.68,4.82.32,9.61.89,14.36,1.73,14.3,2.54,27.57,7.79,39.98,15.27,10.68,6.43,19.93,14.53,28.02,24,5.24,6.13,9.78,12.72,13.64,19.79.22.4.49.78.67,1.2.38.86.98,1.22,1.95,1.2,2.2-.05,4.41-.02,6.61,0,2.32.01,4.66-.18,6.96.39,7.77,1.93,13.19,6.46,15.7,14.19.73,2.24.81,4.58.82,6.91.03,5.99.03,11.98.04,17.97,0,3.37,0,6.74,0,10.11.02,0,.03,0,.05,0ZM214.27,176.85c-.91-.56-1.75-.49-2.57-.49-8.57.01-17.14.03-25.71.04-.58,0-1.17.04-1.74-.06-.43-.07-.95-.2-1.22-.5-.53-.57-.98-1.24-1.35-1.93-.37-.7-.12-1.08.68-1.19.49-.07,1-.05,1.49-.05,22.42-.02,44.85-.03,67.27-.08,5.07-.01,10.15-.18,15.22-.24,2.12-.03,4.08-.61,6.03-1.39,6.87-2.77,11.21-8.86,11.15-16.47-.09-10.48,0-20.97,0-31.45,0-8.74-.02-17.47-.02-26.21,0-1.72-.12-3.43-.69-5.05-2.57-7.28-9.38-11.11-15.27-11.08-8.32.04-16.64,0-24.96,0-22.55,0-45.1.02-67.65.02-32.53,0-65.07,0-97.6,0-13.52,0-27.04,0-40.56.02-1.49,0-3.04.02-4.45.43-5.72,1.67-9.55,5.35-11.24,11.15-.52,1.78-.59,3.61-.59,5.44-.02,11.19-.03,22.38-.03,33.58,0,8.03.02,16.06.02,24.09,0,3.31.89,6.38,2.82,9.03,3.69,5.08,8.7,7.92,15.06,8,10.19.13,20.39.22,30.58.23,16.64.02,33.28-.04,49.93-.06.42,0,.83-.01,1.25.01,1.12.07,1.31.4.8,1.44-.24.48-.54.93-.81,1.4-.46.81-1.15,1.13-2.08,1.06-1.12-.08-2.24-.12-3.37-.13-7.61-.02-15.23-.03-22.84-.04-.42,0-.84,0-1.24.08-.25.05-.47.24-.86.45.61.69,1.09,1.32,1.65,1.85,3.2,2.97,6.3,6.06,9.65,8.85,9.09,7.55,19.44,12.73,30.85,15.79,4.92,1.32,9.92,2.11,14.97,2.65.62.07,1.25.1,1.87.02.38-.05.88-.24,1.05-.53.55-.91,1.22-1.86,1.41-2.88.4-2.12.68-4.28.72-6.43.06-3.03-.12-6.07-.25-9.1-.08-1.95-.25-3.9-.41-5.85-.05-.68-.09-1.4-.82-2.04-.54.88-1.59,1.21-1.73,2.34-.02.19-.28.36-.43.53-.33.36-.76.66-.99,1.08-.42.77-.73,1.6-1.05,2.33-.32.03-.55.05-.73.07-.27.77.62,1.35.14,2.18-.96-.57-1.53-1.36-1.72-2.36-.27-1.44-.3-2.9.14-4.32.22-.71.52-1.41.73-2.12.08-.27.04-.58.06-1.01-.86.16-1.29.59-1.66,1.09-.2.27-.3.68-.55.81-1.14.6-1.14,1.62-1.14,2.68,0,.49.05,1-.46,1.38-.45-.19-.89-.38-1.46-.63-.26.86-.5,1.64-.77,2.5q-.96.45-.88,1.71c.02.25.07.5.04.75-.02.21-.12.41-.27.9-.37-.67-.71-1.06-.81-1.52-.23-1.13-.45-2.28-.08-3.45.2-.63.3-1.3.39-1.95.03-.24-.08-.51-.16-1.01-.75.94-.94,1.82-1.17,2.69-.2-.42.11-1.04-.56-1.33-.26.21-.53.43-.86.69-.15-.44-.2-.89-.43-1.19-.4-.51-.26-.92.04-1.36.26-.37.54-.74.84-1.08,1.3-1.48,2.86-2.66,4.52-3.71.98-.61,1.73-1.43,2.34-2.38.14-.21.17-.49.25-.74-.94.33-1.7.82-2.45,1.33-.44.3-.84.71-1.49.23.34-.89.67-1.76,1-2.63-.1-.07-.21-.14-.31-.21-1.28.86-1.61,2.51-2.65,3.69-.14-.4-.25-.7-.38-1.09-.46.37-.81.65-1.17.94l-.17-.14c.25-.67.49-1.34.84-2.29-1.25.84-1.56,2.1-2.64,3.06.06-.65.1-1.01.13-1.37.03-.35.06-.7.09-1.05-.41.1-.64.26-.76.48-.22.4-.37.84-.57,1.25-.04.08-.17.12-.27.18-.02-.34-.04-.63-.08-1.19-.5.61-.83,1.01-1.24,1.51v-.9c-.77.07-1.51.13-2.26.19-.34-.49-.06-.95.14-1.39.64-1.41,1.71-2.47,3.03-3.23.97-.56,2.03-.95,3.04-1.43,2.28-1.07,4.69-1.38,7.18-1.16.48.04.97,0,1.41,0,.26-.73-.22-.9-.6-.94-.64-.06-.74-.52-.85-1.09-1.43.23-2.78.45-4.13.66-.05-.09-.1-.19-.15-.28.59-.75,1.17-1.5,1.76-2.24l-.15-.19c-1.33.58-2.67,1.16-4.11,1.78.45-.78.86-1.48,1.26-2.18-.08-.06-.15-.13-.23-.19-.69.55-1.39,1.09-2.24,1.77.3-.61.52-1.05.77-1.55-1.02-.07-1.36,1-2.19.96v-1.36c-.65.03-1.24.06-2.11.11.46-.51.71-.84,1.01-1.09,2.08-1.75,4.57-2.18,7.15-1.91,3.14.33,6.12,1.23,8.62,3.3.26.22.56.51,1.06.21-.82-1.23-1.88-2.17-3.01-2.97-1.11-.79-2.36-1.38-3.66-2.12.6-.16,1.07-.28,1.53-.4-.01-.06-.03-.12-.04-.18-.79-.13-1.59-.25-2.62-.42.69-.39,1.15-.64,1.87-1.04-1.05-.37-1.87-.65-2.68-.94.89-.3,1.81-.64,2.67-.53,3.11.37,5.87,1.48,7.79,4.14.89,1.24,1.44,2.61,1.9,4.04.15.47.16,1.08.89,1.33.44-1.07.86-2.11,1.29-3.13,1.62-3.78,4.49-5.89,8.57-6.33,2.12-.23,4.05.31,5.71,1.66.43.35.86.73,1.01,1.48-.76-.29-1.36-.57-1.98-.75-.6-.18-1.19-.18-1.25.65-.48.07-.88.13-1.32.19v.88c-.84-.02-1.65-.38-2.51.11.63.24,1.15.45,1.95.76-1.29.21-2.28-.56-3.55.08.87.34,1.51.59,2.16.84-.57.22-1.1.17-1.62.23-.52.06-1.16-.18-1.6.48.48.27.89.5,1.35.76-.88,1.03-2.25,1.45-2.75,2.9.38-.06.62-.06.83-.15.84-.36,1.67-.74,2.5-1.12,3.65-1.67,7.42-2.11,11.3-.96.78.23,1.5.7,2.21,1.11.19.11.26.42.46.77-1.17-.3-1.96-1.12-3.23-1.06.46.67.84,1.23,1.2,1.75-.31.58-.63.76-1.16.43-.36-.22-.73-.58-1.3-.2.22.4.42.77.62,1.14-.54-.11-.94-.37-1.35-.62q-.73-.46-1.4-.31c.36.52,1.3.45,1.35,1.48-.83-.52-1.54-.97-2.24-1.41-.06.06-.12.13-.18.19.37.54.74,1.09,1.22,1.77-.92-.18-1.65-.33-2.53-.51.21.54.33.88.51,1.35-.78.12-1.46.22-2.15.32,0,.08.01.17.02.25.4.08.79.15,1.19.24,3.43.78,6.06,2.65,7.76,5.75.15.27.25.87.22.89-.72.27,0,.91-.42,1.39-.61-.55-1.01-1.49-2.05-1.23-.11.03-.32-.25-.44-.41-.2-.27-.37-.55-.49-.74-1.4.53-1.38.51-2.03-.54-.28-.45-.63-.88-1.02-1.25-.69-.64-.76-.62-1.69-.04-.35-.17-.7-.35-1.05-.52,1.45,2.05,3.2,3.82,4.23,6.13,1.02,2.29,1.76,4.62,1.64,7.38-.32-.38-.47-.71-.69-.78-.79-.23-.87-.89-1.1-1.51-.29-.81-.7-1.57-1.07-2.38-.41.2-.69.34-1.02.5-.21-.45-.37-.83-.55-1.2-.27-.56-.49-1.16-.85-1.66-.62-.88-1.33-1.69-2-2.53-.62-.78-1.41-1.16-2.69-1.25.44.63.75,1.05,1.04,1.49.5.76,1.06,1.5,1.47,2.31,1.09,2.17,1.72,4.5,2.16,6.88.29,1.56-.57,3.96-1.86,5.18-.09-.37-.21-.66-.23-.96-.02-.46.03-.91.04-1.37.02-.63,0-1.18-.67-1.6-.78-.49-1.07-1.24-.92-2.25.12-.82.22-1.72-.15-2.62-.83.21-1.52.49-1.9,1.27-1.21-.67-1.3-1.81-1.5-2.97-.93.2-1.4-.2-1.73-1.01-.23-.56-.72-1-.56-1.69.03-.13-.09-.39-.19-.43-.65-.22-.77-.81-1.03-1.33-.07-.14-.34-.28-.49-.26-.16.03-.33.24-.4.41-.08.23-.09.49-.08.74.06,1.37.01,2.76.21,4.11.72,4.85,1.45,9.71,2.32,14.54.46,2.57,1.13,5.12,1.88,7.62.65,2.18.93,2.26,3.16,1.95,4.87-.67,9.64-1.78,14.34-3.23,7.76-2.4,15.04-5.82,21.87-10.21,6.27-4.03,11.69-9.06,16.9-14.34.22-.23.38-.51.67-.9ZM174.89,46.39l-.17.2c-.4-.27-.8-.55-1.2-.8-1.61-1.03-3.14-2.22-4.85-3.05-7.06-3.42-14.5-4.72-22.32-3.75-5.69.7-10.78,2.71-14.96,6.74-1.6,1.54-3.33,2.88-5.54,3.47-.81.22-1.25.78-1.26,1.65,0,.33-.04.66-.05,1-.02.53.22.83.75.99,3.06.89,5.38,2.86,7.54,5.12,1.31,1.37,2.77,2.64,4.3,3.78,3.06,2.27,6.6,3.48,10.28,4.32.32.07.62.19.93.28-.14.16-.22.19-.3.18-6.38-.79-11.9-3.3-16.2-8.2-1.78-2.03-3.88-3.64-6.42-4.61-.91-.35-1.54-.14-2,.66-.35.6-.24.88.41,1.14.58.23,1.17.43,1.72.71,1.56.8,2.67,2.1,3.69,3.48,2.1,2.85,4.57,5.26,7.75,6.91,5.91,3.07,12.16,4.4,18.81,3.75,6.24-.61,11.93-2.6,16.74-6.73,3.38-2.89,5.85-6.45,7.47-10.6.69-1.79.65-3.46-.39-5.12-2.92-4.68-6.85-8.21-11.86-10.53-6.42-2.96-13.15-4.05-20.18-3.43-6.23.55-11.82,2.64-16.56,6.8-1.67,1.47-3.02,3.21-4.01,5.21-.2.41-.54.85-.22,1.51.37-.14.74-.21,1.02-.41.61-.43,1.23-.87,1.74-1.4,2.22-2.3,4.7-4.21,7.61-5.56,3.39-1.57,6.93-2.67,10.65-2.91,4.16-.26,8.3.05,12.38,1.1,4.83,1.24,9.21,3.35,13.08,6.49.59.48,1.09,1.09,1.63,1.63ZM90.48,76.24c.79.12,1.26.23,1.74.24,1,.03,2,0,2.99,0,16.35,0,32.69.02,49.04,0,8.78,0,17.55-.09,26.33-.08,13.81.02,27.62.09,41.42.13.47,0,.94-.09,1.69-.16-.4-.58-.61-.96-.88-1.29-3.69-4.57-8.19-8.26-12.96-11.63-4.53-3.2-9.42-5.78-14.55-7.91-.73-.3-1.48-.54-2.23-.8-.66-.23-1.13,0-1.43.62-.13.26-.27.52-.41.77-1.6,3.03-3.48,5.88-5.89,8.32-5.83,5.91-13.01,8.79-21.24,9.11-4.71.19-9.27-.69-13.67-2.39-3.96-1.53-7.65-3.48-10.47-6.76-.89-1.04-1.75-2.11-2.59-3.2-1.21-1.56-2.53-2.97-4.37-3.82-.56-.26-1.12-.6-1.55-1.03-.72-.74-1.49-.82-2.38-.46-.39.15-.8.25-1.17.43-2.29,1.09-4.61,2.12-6.85,3.29-7.53,3.92-14.03,9.19-19.76,15.43-.24.26-.42.58-.83,1.15ZM252.16,78.73c-.26-.61-.42-1.16-.7-1.64-4.99-8.63-10.64-16.77-17.44-24.11-7.51-8.1-16.11-14.78-25.59-20.35-6.33-3.71-13.02-6.68-19.98-9.03-5.29-1.79-10.65-3.29-16.15-4.24-5.13-.88-10.3-1.36-15.5-1.62-7.51-.38-14.98-.01-22.4,1.05-7.68,1.1-15.15,3.09-22.43,5.8-8.43,3.13-16.32,7.28-23.81,12.22-9.07,5.99-16.85,13.39-23.75,21.75-4.03,4.88-7.77,9.97-10.81,15.55-.65,1.2-1.43,2.34-2.12,3.53-.52.89-.37,1.26.61,1.3,1.24.05,2.5.05,3.74-.03.35-.02.74-.32,1.01-.6.28-.29.45-.69.64-1.06,2.39-4.64,5.36-8.9,8.52-13.04,4.59-6,9.67-11.57,15.42-16.46,8.26-7.03,17.45-12.59,27.42-16.87,7.34-3.15,14.93-5.42,22.76-6.87,4.95-.92,9.94-1.54,14.98-1.71,7.42-.26,14.8.02,22.14,1.18,9.01,1.41,17.71,3.89,26.07,7.52,9.94,4.31,19.14,9.86,27.36,16.96,5.94,5.13,11.33,10.76,15.93,17.15,2.99,4.15,6.04,8.27,8.1,13,.25.57.63.84,1.24.84,1.25.01,2.49.06,3.74.05.27,0,.53-.14.98-.27ZM151.72,238.16c7.46.13,15.01-.72,22.5-2.15,8.38-1.6,16.41-4.34,24.11-7.96,8.72-4.1,16.9-9.11,24.38-15.23,8.17-6.67,15.38-14.24,21.45-22.86,2.32-3.29,4.25-6.85,6.35-10.3.47-.78.93-1.58,1.33-2.4.44-.89.27-1.17-.75-1.28-.7-.07-1.42,0-2.12-.09-1.21-.15-1.98.37-2.46,1.45-.17.38-.42.72-.62,1.08-3.65,6.73-8.15,12.85-13.22,18.56-5.71,6.42-12.04,12.16-19.12,17.09-7.79,5.43-16.09,9.88-24.96,13.22-7.38,2.78-15.02,4.56-22.85,5.61-7.75,1.04-15.5,1.17-23.28.57-5.4-.42-10.73-1.33-15.99-2.62-7.9-1.94-15.55-4.58-22.77-8.38-9.62-5.06-18.51-11.14-26.35-18.72-6.5-6.27-12.3-13.08-16.98-20.83-1.16-1.92-2.31-3.85-3.43-5.8-.51-.88-1.2-1.33-2.24-1.26-.7.05-1.41,0-2.12.02-1.58.03-1.76.28-.96,1.66,1.82,3.12,3.63,6.26,5.58,9.3,3.7,5.79,7.87,11.25,12.62,16.23,8.69,9.11,18.69,16.49,29.77,22.42,9.61,5.14,19.77,8.69,30.48,10.7,7.09,1.33,14.24,2.05,21.64,1.96ZM220.41,176.81c-.42-.15-.64-.27-.88-.31-2.33-.37-4.31-.09-5.98,1.99-2.51,3.11-5.61,5.67-8.66,8.25-6.2,5.25-13.06,9.45-20.51,12.68-4.74,2.06-9.62,3.68-14.62,4.98-6,1.57-12.12,2.05-18.28,2.19-8.88.19-17.47-1.5-25.82-4.37-10.8-3.71-20.41-9.5-28.78-17.27-2.59-2.4-5-4.99-7.48-7.5-.48-.49-.97-.93-1.68-.97-1.08-.06-2.16-.11-3.24-.09-.85.02-1.03.44-.5,1.11.57.72,1.19,1.39,1.8,2.07,6.23,6.93,13.02,13.18,20.92,18.2,5.43,3.45,11.19,6.22,17.21,8.46,5.84,2.16,11.87,3.47,18.04,4.28,9.27,1.22,18.44.53,27.5-1.55,7.12-1.63,13.9-4.24,20.48-7.42,8.05-3.9,15.23-9.01,21.63-15.23,2.83-2.75,5.48-5.69,8.2-8.55.22-.23.37-.52.65-.94ZM57.93,78.67c1.33.59,1.98.47,2.68-.57,1.44-2.14,2.84-4.31,4.22-6.48,4.78-7.49,10.67-14.03,17.23-19.97,4.24-3.83,8.9-7.11,13.74-10.14,8.01-5.02,16.5-8.96,25.58-11.64,10.37-3.07,20.93-4.66,31.75-4.41,2.45.06,4.9.21,7.35.4,5.81.45,11.57,1.23,17.22,2.76,6.6,1.79,13.02,4.04,19.2,6.99,5.79,2.77,11.33,5.97,16.55,9.7,4.82,3.44,9.31,7.27,13.46,11.48,5.54,5.62,10.34,11.83,14.28,18.69.48.83.97,1.65,1.43,2.49.42.77,1.07.98,1.89.85.75-.12.93-.39.6-1.11-.35-.75-.73-1.5-1.17-2.2-4.29-6.95-9.01-13.57-14.67-19.5-5.23-5.47-11.05-10.22-17.25-14.51-4.69-3.24-9.71-5.96-14.9-8.35-4.39-2.02-8.88-3.74-13.5-5.19-5.29-1.67-10.68-2.88-16.15-3.71-4.7-.71-9.44-.95-14.18-1.05-7.76-.17-15.45.46-23.06,2.11-6.6,1.43-13.06,3.27-19.31,5.85-4.01,1.65-7.94,3.44-11.7,5.59-4.08,2.33-8.04,4.85-11.85,7.62-5.55,4.04-10.52,8.7-15.05,13.81-2.76,3.1-5.25,6.45-7.78,9.75-2.35,3.08-4.38,6.38-6.23,9.78-.15.28-.25.6-.41.97ZM57.6,176.29c.22.43.38.81.58,1.16,4.72,8.22,10.14,15.91,16.88,22.63,3.3,3.29,6.66,6.52,10.3,9.43,3.93,3.15,8.12,5.93,12.43,8.54,5.75,3.47,11.75,6.39,18.1,8.6,5.15,1.8,10.39,3.26,15.73,4.4,6.05,1.29,12.2,1.66,18.35,1.76,6.28.1,12.54-.32,18.77-1.31,6.98-1.11,13.74-3,20.32-5.49,8.9-3.37,17.23-7.85,24.94-13.49,7.73-5.66,14.6-12.21,20.72-19.56,3.2-3.84,6.08-7.91,8.75-12.13.78-1.23,1.5-2.49,2.21-3.77.42-.75.21-1.08-.63-1.13-.69-.04-1.19.22-1.57.81-1.16,1.83-2.31,3.66-3.5,5.46-2.92,4.41-6.09,8.62-9.62,12.57-5.23,5.85-10.93,11.2-17.3,15.77-9.18,6.58-19.14,11.69-29.89,15.25-8.2,2.72-16.62,4.15-25.19,4.68-4.27.26-8.57.15-12.84,0-3.07-.11-6.15-.42-9.18-.88-6.09-.93-12.06-2.38-17.88-4.46-5.57-1.99-11-4.27-16.18-7.16-3.67-2.05-7.15-4.41-10.61-6.78-9.05-6.19-16.79-13.75-23.21-22.61-2.73-3.77-5.16-7.75-7.71-11.64-.77-1.17-1.23-1.33-2.76-.64ZM86.61,76.57s0,.03,0,.04c.25,0,.5-.02.75,0,1.16.11,2.02-.3,2.83-1.19,1.55-1.73,3.19-3.39,4.88-4.98,3.54-3.34,7.29-6.43,11.47-8.96,3.8-2.31,7.77-4.31,11.84-6.11,1.01-.45,1.97-1.08,2.86-1.73.91-.67,1.34-1.69,1.49-2.79.1-.74-.17-1.01-.91-.96-.45.03-.92.12-1.33.29-2.87,1.21-5.76,2.38-8.58,3.68-4.04,1.87-7.88,4.13-11.53,6.67-5.77,4.01-10.78,8.85-15.28,14.23-.27.32-.54.64-.75.99-.25.42-.09.76.39.81.62.05,1.24.01,1.87.01ZM220.14,76.64l.19-.36c-.21-.33-.4-.68-.65-.97-1.06-1.23-2.13-2.45-3.22-3.65-3.81-4.2-7.99-8-12.57-11.34-5.03-3.66-10.5-6.55-16.21-8.99-1.03-.44-2.07-.86-3.13-1.24-1.04-.37-1.23-.23-1.45.82-.08.41-.16.82-.25,1.22-.28,1.33-.2,1.46,1.01,2,2.24,1,4.49,1.97,6.69,3.04,7.55,3.66,14.22,8.57,20.1,14.55,1.25,1.27,2.42,2.63,3.67,3.91.42.43.96.92,1.5,1.02,1.42.26,2.87.05,4.31,0ZM95.93,52.52c-.04-.07-.09-.27-.21-.33-.76-.4-1.28-.99-1.72-1.72-.21-.35-.59-.15-.84.12-.41.46-.81.93-1.24,1.38-.36.38-.36.73.02,1.07.48.45.98.89,1.47,1.33.09.08.2.15.32.18.39.11,2.22-1.51,2.19-2.03ZM208.22,52.6c.79.73,1.55,1.44,2.36,2.19.45-.53.82-.97,1.19-1.4.82-.94.82-.94-.13-1.71-.28-.23-.51-.54-.76-.82-.34-.39-.68-.43-1.05-.03-.49.54-.99,1.08-1.62,1.77Z"/>
    <path class="st2" d="M214.27,176.85c-.28.38-.44.67-.67.9-5.21,5.28-10.63,10.31-16.9,14.34-6.83,4.39-14.1,7.81-21.87,10.21-4.7,1.45-9.47,2.56-14.34,3.23-2.23.31-2.51.23-3.16-1.95-.75-2.5-1.42-5.05-1.88-7.62-.87-4.83-1.6-9.68-2.32-14.54-.2-1.35-.16-2.74-.21-4.11,0-.25,0-.51.08-.74.06-.17.24-.38.4-.41.15-.03.42.12.49.26.26.51.38,1.11,1.03,1.33.1.04.22.3.19.43-.17.7.32,1.14.56,1.69.34.81.8,1.21,1.73,1.01.19,1.16.29,2.3,1.5,2.97.38-.78,1.07-1.06,1.9-1.27.37.9.27,1.8.15,2.62-.15,1.01.14,1.76.92,2.25.67.42.69.97.67,1.6-.01.46-.07.92-.04,1.37.02.3.14.59.23.96,1.3-1.22,2.15-3.63,1.86-5.18-.44-2.38-1.07-4.71-2.16-6.88-.41-.81-.97-1.55-1.47-2.31-.29-.44-.59-.86-1.04-1.49,1.27.09,2.07.47,2.69,1.25.67.84,1.38,1.66,2,2.53.36.5.58,1.1.85,1.66.18.37.34.75.55,1.2.34-.17.61-.3,1.02-.5.37.81.78,1.58,1.07,2.38.23.63.31,1.28,1.1,1.51.22.07.36.4.69.78.12-2.76-.62-5.09-1.64-7.38-1.03-2.31-2.78-4.08-4.23-6.13.35.17.71.35,1.05.52.93-.58,1.01-.6,1.69.04.39.36.74.79,1.02,1.25.65,1.05.62,1.07,2.03.54.12.18.29.47.49.74.12.16.33.44.44.41,1.04-.26,1.44.68,2.05,1.23.43-.47-.3-1.12.42-1.39.04-.01-.07-.62-.22-.89-1.71-3.1-4.33-4.98-7.76-5.75-.39-.09-.79-.16-1.19-.24,0-.08-.01-.17-.02-.25.69-.1,1.37-.21,2.15-.32-.18-.47-.3-.8-.51-1.35.88.18,1.61.32,2.53.51-.47-.69-.84-1.23-1.22-1.77.06-.06.12-.13.18-.19.7.44,1.41.89,2.24,1.41-.05-1.02-.99-.96-1.35-1.48q.67-.14,1.4.31c.41.25.81.51,1.35.62-.2-.37-.4-.74-.62-1.14.57-.38.94-.02,1.3.2.53.33.85.15,1.16-.43-.36-.52-.74-1.08-1.2-1.75,1.27-.06,2.06.76,3.23,1.06-.2-.34-.27-.66-.46-.77-.71-.41-1.43-.88-2.21-1.11-3.88-1.15-7.65-.71-11.3.96-.83.38-1.66.77-2.5,1.12-.21.09-.45.08-.83.15.51-1.44,1.88-1.86,2.75-2.9-.47-.26-.87-.49-1.35-.76.44-.67,1.08-.42,1.6-.48.52-.06,1.05-.01,1.62-.23-.64-.25-1.29-.5-2.16-.84,1.27-.64,2.26.13,3.55-.08-.79-.31-1.32-.51-1.95-.76.86-.49,1.67-.13,2.51-.11v-.88c.44-.06.85-.12,1.32-.19.05-.83.64-.83,1.25-.65.63.18,1.23.46,1.98.75-.14-.75-.58-1.13-1.01-1.48-1.67-1.36-3.6-1.89-5.71-1.66-4.08.44-6.95,2.55-8.57,6.33-.44,1.02-.85,2.06-1.29,3.13-.72-.25-.74-.85-.89-1.33-.46-1.43-1.01-2.81-1.9-4.04-1.93-2.66-4.69-3.77-7.79-4.14-.86-.1-1.78.23-2.67.53.82.29,1.63.57,2.68.94-.72.4-1.18.66-1.87,1.04,1.03.16,1.83.29,2.62.42.01.06.03.12.04.18-.47.12-.93.25-1.53.4,1.31.74,2.55,1.33,3.66,2.12,1.13.8,2.19,1.74,3.01,2.97-.5.3-.8,0-1.06-.21-2.5-2.07-5.48-2.97-8.62-3.3-2.58-.27-5.07.16-7.15,1.91-.3.26-.54.58-1.01,1.09.87-.05,1.46-.08,2.11-.11v1.36c.83.04,1.17-1.03,2.19-.96-.25.5-.47.94-.77,1.55.85-.67,1.55-1.22,2.24-1.77.08.06.15.13.23.19-.4.7-.81,1.4-1.26,2.18,1.44-.62,2.77-1.2,4.11-1.78l.15.19c-.59.75-1.17,1.5-1.76,2.24.05.09.1.19.15.28,1.35-.22,2.7-.43,4.13-.66.11.57.21,1.03.85,1.09.38.04.86.2.6.94-.45,0-.93.04-1.41,0-2.49-.22-4.9.09-7.18,1.16-1.01.48-2.08.87-3.04,1.43-1.32.76-2.38,1.81-3.03,3.23-.2.44-.48.9-.14,1.39.75-.06,1.49-.13,2.26-.19v.9c.41-.49.73-.89,1.24-1.51.04.56.06.85.08,1.19.1-.07.23-.1.27-.18.2-.41.35-.85.57-1.25.12-.22.35-.39.76-.48-.03.35-.06.7-.09,1.05-.03.36-.07.72-.13,1.37,1.08-.96,1.4-2.22,2.64-3.06-.35.95-.59,1.62-.84,2.29l.17.14c.36-.29.72-.58,1.17-.94.13.38.24.69.38,1.09,1.04-1.18,1.37-2.83,2.65-3.69.1.07.21.14.31.21-.33.87-.66,1.74-1,2.63.65.48,1.05.07,1.49-.23.75-.51,1.5-.99,2.45-1.33-.08.25-.11.53-.25.74-.61.95-1.36,1.77-2.34,2.38-1.66,1.05-3.22,2.23-4.52,3.71-.3.34-.58.71-.84,1.08-.3.43-.44.85-.04,1.36.23.3.28.75.43,1.19.32-.26.6-.48.86-.69.67.29.36.91.56,1.33.23-.87.42-1.75,1.17-2.69.09.5.2.77.16,1.01-.09.66-.19,1.32-.39,1.95-.37,1.17-.15,2.31.08,3.45.09.45.44.85.81,1.52.15-.49.25-.69.27-.9.02-.25-.03-.5-.04-.75q-.08-1.26.88-1.71c.26-.87.5-1.64.77-2.5.57.24,1.01.43,1.46.63.51-.38.46-.89.46-1.38,0-1.05,0-2.08,1.14-2.68.26-.13.36-.55.55-.81.37-.5.8-.93,1.66-1.09-.02.43.03.74-.06,1.01-.22.72-.51,1.41-.73,2.12-.44,1.42-.41,2.88-.14,4.32.19,1,.76,1.79,1.72,2.36.48-.83-.41-1.4-.14-2.18.19-.02.41-.04.73-.07.32-.74.63-1.57,1.05-2.33.23-.42.66-.72.99-1.08.16-.17.41-.34.43-.53.14-1.13,1.19-1.46,1.73-2.34.73.64.77,1.36.82,2.04.15,1.95.32,3.9.41,5.85.13,3.03.31,6.07.25,9.1-.04,2.15-.32,4.32-.72,6.43-.19,1.02-.86,1.96-1.41,2.88-.18.29-.68.48-1.05.53-.61.08-1.25.05-1.87-.02-5.05-.55-10.06-1.34-14.97-2.65-11.42-3.06-21.76-8.24-30.85-15.79-3.35-2.79-6.46-5.88-9.65-8.85-.57-.53-1.04-1.16-1.65-1.85.39-.21.61-.4.86-.45.4-.08.83-.08,1.24-.08,7.61,0,15.23.02,22.84.04,1.12,0,2.25.04,3.37.13.93.07,1.62-.25,2.08-1.06.27-.47.57-.92.81-1.4.51-1.04.32-1.37-.8-1.44-.41-.03-.83-.01-1.25-.01-16.64.02-33.28.08-49.93.06-10.19-.01-20.39-.1-30.58-.23-6.35-.08-11.37-2.92-15.06-8-1.92-2.65-2.82-5.72-2.82-9.03,0-8.03-.02-16.06-.02-24.09,0-11.19.01-22.38.03-33.58,0-1.83.07-3.66.59-5.44,1.69-5.8,5.52-9.48,11.24-11.15,1.41-.41,2.96-.43,4.45-.43,13.52-.03,27.04-.02,40.56-.02,32.53,0,65.07,0,97.6,0,22.55,0,45.1-.01,67.65-.02,8.32,0,16.64.03,24.96,0,5.89-.03,12.7,3.8,15.27,11.08.57,1.62.69,3.33.69,5.05,0,8.74.02,17.47.02,26.21,0,10.48-.09,20.97,0,31.45.07,7.61-4.27,13.7-11.15,16.47-1.95.79-3.91,1.36-6.03,1.39-5.07.07-10.15.23-15.22.24-22.42.05-44.85.06-67.27.08-.5,0-1-.02-1.49.05-.81.11-1.05.49-.68,1.19.36.69.82,1.36,1.35,1.93.27.3.79.43,1.22.5.57.09,1.16.06,1.74.06,8.57-.01,17.14-.03,25.71-.04.82,0,1.66-.08,2.57.49ZM183.02,121.34c0-2.01-.13-5.54-.79-9.03-.89-4.72-2.38-9.2-5.81-12.75-3.86-4-8.56-5.26-13.92-3.94-3.79.94-6.52,3.38-8.63,6.57-2.35,3.56-3.32,7.59-3.83,11.75-.45,3.64-.48,7.31-.3,10.96.22,4.49.76,8.95,2.25,13.23,1.14,3.26,2.72,6.25,5.27,8.65,6.02,5.64,15.23,4.88,20.22-1.68,2.29-3.01,3.54-6.47,4.42-10.1.96-3.99,1.11-8.06,1.11-13.67ZM219.61,123.58c-.24-3.15-.4-6.31-.73-9.44-.38-3.62-1.27-7.12-3.01-10.36-1.75-3.25-4.12-5.88-7.65-7.18-5.46-2-11.97-.78-16.1,4.84-2.28,3.09-3.43,6.63-4.18,10.32-.91,4.47-1.05,9-.87,13.54.16,4.04.49,8.06,1.66,11.95,1.05,3.5,2.59,6.75,5.18,9.41,2.62,2.69,5.82,4.18,9.56,4.2,5.18.02,9.05-2.41,11.76-6.75,1.77-2.83,2.67-5.98,3.33-9.22.75-3.73.92-7.51,1.06-11.31ZM222.58,97.97c.28.52.37.8.55,1.01.97,1.19,1.28,2.59,1.34,4.07.03.66.06,1.33.06,1.99.03,13.72.06,27.44.1,41.16,0,1.29-.24,2.46-.97,3.54-.55.81-.38,1.12.57,1.14,3.12.04,6.24.12,9.35.04,1.27-.03,2.57-.28,3.79-.64,4.39-1.3,7.36-4.25,9.19-8.37,1.25-2.8,1.82-5.78,2.1-8.81.54-5.82.57-11.62-.5-17.39-.67-3.59-1.77-7-3.93-10.01-2.5-3.49-5.67-5.96-10.02-6.57-2.96-.42-5.94-.7-8.91-1.01-.81-.09-1.63-.09-2.72-.15ZM152.32,85.95v.03c28.5,0,56.99,0,85.49,0,10.11,0,20.22.04,30.33.04,3.19,0,5.65,1.48,7.7,3.78,1.82,2.04,2.32,4.5,2.32,7.18-.03,12.69,0,25.38,0,38.06,0,6.91-.05,13.81-.02,20.72.02,5.4-4.74,9.62-9.49,9.72-.96.02-1.92.06-2.87,0-4.27-.29-8.55-.57-12.82-.92-4.68-.39-9.35-.94-14.04-1.26-8.55-.59-17.1-1.07-25.65-1.58-6.44-.39-12.87-.77-19.31-1.12-2.82-.15-5.65-.23-8.48-.32-.53-.02-1.09.03-1.61.16-1.28.33-2.17,1.67-2.02,2.94.16,1.34.94,2.01,2.48,2.1.54.03,1.08.04,1.62.04,12.02,0,24.04.01,36.07.02,6.45,0,12.9-.03,19.34.01,7.65.05,15.31-.07,22.95.52,1.33.1,2.66.07,3.99.09,1.48.02,2.91-.31,4.22-.96,3.76-1.86,6.04-4.79,6.09-9.12.06-5.07.01-10.15.02-15.22.01-13.48.04-26.96.04-40.43,0-1.87-.05-3.74-.12-5.61-.06-1.49-.56-2.87-1.36-4.1-2.15-3.3-5.08-5.32-9.15-5.37-.75-.01-1.5-.03-2.25-.04-8.78,0-17.56,0-26.33,0-26.62,0-53.25-.01-79.87-.02-27.42,0-54.83,0-82.25,0-13.06,0-26.13-.02-39.19,0-1.45,0-2.92.09-4.34.35-4.84.91-8.31,5.58-8.22,9.43.03,1.33-.02,2.66-.02,3.99.01,17.68.03,35.36.04,53.04,0,1.62,0,3.24,0,4.87,0,1.46.47,2.78,1.26,3.99,2.46,3.75,5.95,5.36,10.4,5.13,5.07-.25,10.14-.54,15.21-.55,21.55-.04,43.1.01,64.65.03.5,0,1,.02,1.5-.02,1.53-.13,2.4-1.02,2.44-2.47.04-1.48-.74-2.49-2.21-2.69-.86-.12-1.74-.12-2.61-.08-3.62.14-7.23.28-10.84.48-8.43.47-16.86.95-25.29,1.47-4.11.25-8.21.57-12.32.87-4.23.3-8.46.59-12.69.91-3.9.29-7.79.62-11.69.92-2.41.18-4.81.4-7.22.47-3.5.11-6.27-1.42-8.39-4.14-1.02-1.31-1.59-2.82-1.62-4.5-.02-1.37-.04-2.75-.04-4.12,0-17.72,0-35.44,0-53.17,0-1.62,0-3.25.13-4.86.07-.89.28-1.83.67-2.64,1.58-3.29,4.17-5.35,7.83-5.88,1.27-.18,2.57-.17,3.86-.17,37.9,0,75.8,0,113.7,0ZM145.38,107.89c0-4.01,0-7.65,0-11.3,0-.19-.12-.38-.19-.59-1.11.05-2.18.12-3.26.13-7.28.06-14.56.11-21.84.16-.29,0-.59-.02-.87.04-.25.05-.49.2-.78.32.11.25.14.43.24.54,1.43,1.7,1.72,3.68,1.71,5.83-.05,6.78,0,13.56.03,20.34.03,7.03.05,14.06.11,21.09.01,1.68-.24,3.23-1.49,4.48-.23.23-.33.6-.63,1.16,4.55,0,8.81,0,13.08,0,.19,0,.37-.12.56-.18.09-.7-.35-1.06-.73-1.42-1.17-1.1-1.66-2.45-1.66-4.03,0-6.16,0-12.31,0-18.47,0-1.24.22-1.44,1.47-1.48,1.41-.04,2.84.03,4.24-.09,1.7-.15,3.11.32,4.29,1.55.24.25.56.43,1.06.81.07-.59.16-.93.15-1.27-.02-3.16-.05-6.32-.1-9.48,0-.35-.08-.7-.17-1.36-.58.56-.97.89-1.32,1.27-1.29,1.42-2.8,2.32-4.81,2.17-1.12-.08-2.25-.01-3.37-.04-1.23-.03-1.42-.18-1.42-1.36-.03-4.12-.03-8.24-.02-12.36,0-1.04.2-1.25,1.26-1.27,2.58-.05,5.16-.07,7.74-.04,1.39.01,2.61.55,3.59,1.52.71.7,1.35,1.47,2.03,2.2.3.32.61.62,1.1,1.12ZM91,150.26c-.25-.42-.37-.74-.59-.96-1.44-1.42-1.83-3.15-1.81-5.12.03-5.7-.05-11.39-.06-17.09,0-.57.11-1.16.29-1.71.76-2.29,1.56-4.56,2.36-6.84,1.89-5.37,3.76-10.75,5.7-16.11.66-1.83,1.36-3.68,2.77-5.12.19-.19.35-.41.65-.76-1.15,0-2.09-.01-3.03,0-.96.02-1.91.07-2.87.1-.96.04-1.91.04-2.87.13-.91.08-1.89-.2-2.89.38.32.47.59.88.87,1.27.63.85.86,1.79.6,2.83-.11.44-.17.9-.31,1.34-1.51,4.67-3.02,9.33-4.55,13.99-.12.36-.37.67-.56,1-.82-.29-.88-.93-1.08-1.45-1.01-2.68-2-5.38-2.99-8.07-.77-2.11-1.53-4.22-2.27-6.34-.43-1.24-.46-2.44.42-3.54.16-.2.18-.5.29-.8-.26-.06-.42-.14-.58-.14-3.7.14-7.39.29-11.09.46-.24.01-.48.2-.72.3-.06.12-.13.23-.19.35.2.08.44.11.59.24.5.48,1.08.94,1.42,1.52.63,1.07,1.16,2.21,1.63,3.36,3.07,7.46,6.11,14.93,9.19,22.38.36.87.56,1.72.57,2.65.03,4.07.09,8.15.13,12.22.02,1.79.02,3.58.02,5.36,0,1.03-.3,1.96-.97,2.76-.36.43-.66.92-1.05,1.48.33.1.52.21.7.2,4.02-.1,8.04-.2,12.28-.32ZM61.67,151.44c.05-.65.1-.97.09-1.3-.13-4.58-.11-9.15.3-13.71.04-.45.26-1.16-.43-1.24-.64-.07-.6.67-.76,1.11-.57,1.56-1.08,3.14-1.7,4.68-.51,1.26-1.42,2.24-2.5,3.06-2.15,1.64-4.53,1.55-6.61-.22-1.28-1.08-2.08-2.47-2.66-4.01-.76-2-1.15-4.07-1.38-6.19-.75-6.79-.52-13.54,1-20.21.42-1.83,1.1-3.58,2.17-5.15,1.81-2.62,4.88-3.08,7.4-1.14,1.05.81,1.8,1.86,2.34,3.04.54,1.17.97,2.39,1.44,3.58.16.4.24.88.94.95,0-4.92,0-9.77,0-14.61,0-.22-.13-.45-.23-.73-.26.1-.49.13-.62.26-.92.95-1.97.94-3.11.52-.35-.13-.71-.25-1.06-.36-4.14-1.23-8-.8-11.36,2.1-1.75,1.51-3.05,3.39-3.98,5.52-1.58,3.62-2.39,7.43-2.78,11.34-.49,5.07-.53,10.14.05,15.2.51,4.5,1.61,8.83,4.08,12.72,1.09,1.71,2.41,3.19,4.09,4.31,2.76,1.85,5.71,2.16,8.79.9.84-.34,1.64-.8,2.43-1.26.97-.56,1.89-.52,2.81.1.33.22.68.41,1.24.75ZM269.01,102.92c-.16,0-.27-.03-.32,0-1.19.91-2.2.39-3.3-.26-.96-.56-1.99-1.09-3.06-1.34-3.95-.91-6.97.11-8.98,4.13-1.15,2.29-1.59,4.73-1.36,7.27.33,3.57,1.36,6.95,3.21,10.02,1.5,2.49,3.19,4.87,4.83,7.27,1.98,2.9,3.7,5.93,4.56,9.37.34,1.35.45,2.71.14,4.08-.53,2.34-2.36,3.51-4.54,2.89-.98-.28-1.82-.84-2.44-1.65-.48-.62-.99-1.25-1.35-1.94-1.08-2.06-2.1-4.15-3.15-6.23-.19-.37-.22-.88-.91-1.02,0,.58,0,1.07,0,1.56.02.91.06,1.83.07,2.74.04,3.54.08,7.07.13,10.61,0,.46-.14,1,.42,1.39.2-.15.42-.28.58-.44,1.1-1.1,1.3-1.09,2.63-.19.86.58,1.74,1.15,2.69,1.55,3.91,1.7,7.94.43,10.25-3.14,1.53-2.37,2.28-4.97,2.41-7.77.23-5.01-1.38-9.51-3.91-13.71-1.63-2.7-3.44-5.3-5.18-7.94-1.24-1.88-2.44-3.78-3.13-5.94-.47-1.44-.67-2.92-.2-4.42.59-1.86,2.22-2.6,3.92-1.68.75.41,1.44,1,2.03,1.62,1.56,1.63,2.42,3.66,3.19,5.74.14.39.39.74.59,1.11l.29-.06c.07-.3.17-.6.19-.9.21-3.33.01-11.85-.3-12.73ZM100.29,150.64c2.86.02,5.11-2.04,5.05-4.72-.05-2.34-1.51-5.1-4.86-5.1-2.74,0-4.88,2.31-4.87,5.26,0,2.74,1.86,4.55,4.67,4.57ZM65.03,146.59c-.02,2.74,1.93,4.74,4.67,4.79,2.67.04,4.61-2.05,4.68-4.92.08-3.29-2.56-4.89-4.7-4.9-2.53,0-4.63,2.26-4.65,5.03ZM197.43,183.49c-.57-.51-1.15-1.02-1.6-1.42-.61.48-1.19.94-1.77,1.4.59.78,1.07,1.42,1.58,2.1.66-.76,1.21-1.4,1.79-2.07ZM107.89,185.51c.62-.76,1.17-1.44,1.81-2.23-.62-.45-1.23-.88-1.86-1.34-.49.6-.93,1.12-1.33,1.6.47.67.86,1.24,1.37,1.96Z"/>
    <path class="st1" d="M174.89,46.39c-.54-.55-1.03-1.15-1.63-1.63-3.87-3.14-8.25-5.25-13.08-6.49-4.08-1.04-8.21-1.36-12.38-1.1-3.73.24-7.26,1.34-10.65,2.91-2.91,1.35-5.4,3.26-7.61,5.56-.51.53-1.13.97-1.74,1.4-.28.2-.65.27-1.02.41-.32-.66.01-1.1.22-1.51.99-2,2.33-3.74,4.01-5.21,4.73-4.17,10.33-6.26,16.56-6.8,7.03-.62,13.77.47,20.18,3.43,5.01,2.31,8.94,5.84,11.86,10.53,1.04,1.67,1.09,3.34.39,5.12-1.61,4.16-4.09,7.71-7.47,10.6-4.81,4.12-10.5,6.12-16.74,6.73-6.65.65-12.9-.68-18.81-3.75-3.18-1.65-5.65-4.06-7.75-6.91-1.02-1.38-2.13-2.68-3.69-3.48-.55-.28-1.14-.48-1.72-.71-.65-.26-.75-.53-.41-1.14.46-.8,1.09-1.01,2-.66,2.54.98,4.64,2.58,6.42,4.61,4.3,4.9,9.81,7.41,16.2,8.2.08,0,.16-.02.3-.18-.31-.09-.62-.21-.93-.28-3.68-.84-7.22-2.06-10.28-4.32-1.53-1.13-2.98-2.4-4.3-3.78-2.16-2.26-4.48-4.22-7.54-5.12-.53-.15-.76-.46-.75-.99.01-.33.05-.66.05-1,0-.87.45-1.43,1.26-1.65,2.21-.59,3.94-1.93,5.54-3.47,4.18-4.03,9.27-6.04,14.96-6.74,7.82-.97,15.26.33,22.32,3.75,1.71.83,3.24,2.02,4.85,3.05.41.26.8.54,1.2.8l.17-.2ZM136.02,45.79c2.12-.82,4.19-1.83,6.38-2.39,2.16-.56,4.44-.67,6.67-.98-4.84-.79-9.14.51-13.04,3.37ZM164.86,60.46c.2-.01.4,0,.59-.04,3.12-.73,5.95-2.08,8.43-4.12.96-.79,1.68-1.79,1.94-3.1-1.39,1.77-2.96,3.31-4.92,4.43-1.94,1.1-3.95,2.02-6.04,2.83Z"/>
    <path class="st2" d="M90.48,76.24c.4-.57.58-.89.83-1.15,5.73-6.24,12.23-11.5,19.76-15.43,2.25-1.17,4.56-2.21,6.85-3.29.37-.18.78-.28,1.17-.43.89-.36,1.66-.28,2.38.46.43.43.99.77,1.55,1.03,1.84.85,3.16,2.26,4.37,3.82.84,1.09,1.69,2.16,2.59,3.2,2.82,3.28,6.51,5.23,10.47,6.76,4.4,1.7,8.95,2.57,13.67,2.39,8.23-.32,15.41-3.2,21.24-9.11,2.41-2.44,4.29-5.29,5.89-8.32.14-.26.28-.51.41-.77.3-.62.77-.84,1.43-.62.75.26,1.5.49,2.23.8,5.12,2.13,10.02,4.71,14.55,7.91,4.76,3.36,9.26,7.06,12.96,11.63.27.33.49.71.88,1.29-.75.07-1.22.16-1.69.16-13.81-.04-27.62-.11-41.42-.13-8.78-.01-17.55.07-26.33.08-16.35.01-32.69,0-49.04,0-1,0-2,.02-2.99,0-.48-.01-.95-.13-1.74-.24ZM196.04,71.37c.54-.77,1.03-1.46,1.56-2.21-.3-.35-.63-.76-.98-1.15-.24-.26-.55-.46-.85-.17-.52.49-.99,1.02-1.42,1.47.6.73,1.11,1.34,1.7,2.05ZM108.43,67.46c-.67.6-1.3,1.14-1.84,1.62.65.75,1.19,1.37,1.77,2.05.55-.59,1.09-1.18,1.68-1.82-.54-.62-1.03-1.19-1.61-1.86Z"/>
    <path class="st2" d="M252.16,78.73c-.44.13-.71.27-.98.27-1.25,0-2.49-.04-3.74-.05-.61,0-1-.27-1.24-.84-2.06-4.73-5.11-8.84-8.1-13-4.59-6.38-9.99-12.02-15.93-17.15-8.22-7.1-17.42-12.65-27.36-16.96-8.35-3.62-17.06-6.1-26.07-7.52-7.34-1.15-14.72-1.43-22.14-1.18-5.05.18-10.04.79-14.98,1.71-7.83,1.46-15.42,3.73-22.76,6.87-9.98,4.28-19.16,9.84-27.42,16.87-5.75,4.89-10.83,10.46-15.42,16.46-3.16,4.13-6.13,8.4-8.52,13.04-.19.37-.36.77-.64,1.06-.27.28-.66.58-1.01.6-1.24.08-2.5.08-3.74.03-.98-.04-1.14-.41-.61-1.3.7-1.18,1.47-2.32,2.12-3.53,3.03-5.58,6.78-10.67,10.81-15.55,6.89-8.36,14.68-15.76,23.75-21.75,7.49-4.94,15.38-9.09,23.81-12.22,7.28-2.71,14.74-4.7,22.43-5.8,7.43-1.06,14.9-1.44,22.4-1.05,5.2.27,10.37.74,15.5,1.62,5.51.95,10.86,2.45,16.15,4.24,6.96,2.35,13.65,5.32,19.98,9.03,9.49,5.56,18.09,12.24,25.59,20.35,6.8,7.34,12.45,15.48,17.44,24.11.28.48.44,1.03.7,1.64Z"/>
    <path class="st2" d="M151.72,238.16c-7.4.09-14.55-.63-21.64-1.96-10.71-2-20.87-5.56-30.48-10.7-11.09-5.93-21.09-13.31-29.77-22.42-4.75-4.98-8.92-10.43-12.62-16.23-1.95-3.05-3.76-6.18-5.58-9.3-.8-1.38-.62-1.63.96-1.66.71-.01,1.42.03,2.12-.02,1.04-.07,1.73.38,2.24,1.26,1.13,1.94,2.27,3.87,3.43,5.8,4.68,7.74,10.48,14.56,16.98,20.83,7.85,7.57,16.74,13.65,26.35,18.72,7.22,3.8,14.87,6.44,22.77,8.38,5.26,1.29,10.59,2.2,15.99,2.62,7.78.6,15.53.47,23.28-.57,7.82-1.05,15.47-2.83,22.85-5.61,8.87-3.34,17.16-7.79,24.96-13.22,7.08-4.93,13.41-10.67,19.12-17.09,5.07-5.7,9.58-11.83,13.22-18.56.2-.37.45-.71.62-1.08.48-1.08,1.25-1.6,2.46-1.45.7.08,1.42.02,2.12.09,1.02.1,1.19.38.75,1.28-.4.82-.85,1.62-1.33,2.4-2.09,3.45-4.03,7.01-6.35,10.3-6.07,8.61-13.28,16.18-21.45,22.86-7.49,6.12-15.66,11.12-24.38,15.23-7.7,3.62-15.72,6.36-24.11,7.96-7.49,1.43-15.04,2.28-22.5,2.15Z"/>
    <path class="st2" d="M220.41,176.81c-.29.42-.43.71-.65.94-2.72,2.86-5.37,5.8-8.2,8.55-6.39,6.22-13.58,11.33-21.63,15.23-6.57,3.19-13.36,5.79-20.48,7.42-9.06,2.08-18.23,2.77-27.5,1.55-6.17-.81-12.2-2.11-18.04-4.28-6.02-2.23-11.77-5.01-17.21-8.46-7.9-5.01-14.7-11.27-20.92-18.2-.61-.68-1.23-1.36-1.8-2.07-.53-.67-.35-1.09.5-1.11,1.08-.03,2.16.03,3.24.09.71.04,1.2.48,1.68.97,2.48,2.52,4.89,5.1,7.48,7.5,8.38,7.77,17.99,13.55,28.78,17.27,8.35,2.87,16.93,4.57,25.82,4.37,6.17-.13,12.28-.62,18.28-2.19,5-1.31,9.88-2.93,14.62-4.98,7.45-3.23,14.31-7.43,20.51-12.68,3.05-2.58,6.15-5.14,8.66-8.25,1.67-2.08,3.65-2.37,5.98-1.99.23.04.45.16.88.31Z"/>
    <path class="st0" d="M57.93,78.67c.15-.37.25-.69.41-.97,1.85-3.41,3.87-6.7,6.23-9.78,2.53-3.3,5.02-6.64,7.78-9.75,4.54-5.11,9.5-9.77,15.05-13.81,3.81-2.77,7.77-5.29,11.85-7.62,3.76-2.15,7.7-3.93,11.7-5.59,6.25-2.58,12.71-4.42,19.31-5.85,7.6-1.65,15.3-2.28,23.06-2.11,4.74.11,9.48.34,14.18,1.05,5.47.83,10.86,2.04,16.15,3.71,4.61,1.45,9.11,3.18,13.5,5.19,5.18,2.38,10.2,5.11,14.9,8.35,6.2,4.29,12.02,9.04,17.25,14.51,5.66,5.93,10.38,12.55,14.67,19.5.44.71.82,1.45,1.17,2.2.34.72.16.99-.6,1.11-.82.13-1.47-.08-1.89-.85-.46-.84-.95-1.66-1.43-2.49-3.94-6.85-8.74-13.07-14.28-18.69-4.15-4.21-8.64-8.04-13.46-11.48-5.23-3.74-10.76-6.94-16.55-9.7-6.18-2.95-12.6-5.2-19.2-6.99-5.65-1.53-11.4-2.32-17.22-2.76-2.45-.19-4.9-.34-7.35-.4-10.82-.25-21.39,1.34-31.75,4.41-9.08,2.69-17.57,6.62-25.58,11.64-4.84,3.03-9.5,6.31-13.74,10.14-6.57,5.94-12.45,12.48-17.23,19.97-1.39,2.17-2.79,4.34-4.22,6.48-.7,1.04-1.35,1.16-2.68.57Z"/>
    <path class="st0" d="M57.6,176.29c1.52-.69,1.99-.53,2.76.64,2.55,3.89,4.98,7.88,7.71,11.64,6.43,8.86,14.17,16.42,23.21,22.61,3.47,2.37,6.94,4.72,10.61,6.78,5.17,2.89,10.6,5.17,16.18,7.16,5.82,2.08,11.79,3.54,17.88,4.46,3.04.46,6.11.77,9.18.88,4.28.15,8.58.26,12.84,0,8.57-.53,17-1.97,25.19-4.68,10.75-3.56,20.71-8.67,29.89-15.25,6.38-4.57,12.07-9.91,17.3-15.77,3.53-3.95,6.7-8.16,9.62-12.57,1.19-1.8,2.34-3.63,3.5-5.46.37-.59.88-.85,1.57-.81.83.05,1.05.38.63,1.13-.71,1.27-1.43,2.54-2.21,3.77-2.67,4.22-5.56,8.29-8.75,12.13-6.12,7.35-12.98,13.9-20.72,19.56-7.71,5.64-16.04,10.12-24.94,13.49-6.57,2.49-13.34,4.38-20.32,5.49-6.23.99-12.48,1.41-18.77,1.31-6.16-.1-12.31-.46-18.35-1.76-5.33-1.14-10.57-2.6-15.73-4.4-6.35-2.22-12.35-5.13-18.1-8.6-4.31-2.6-8.5-5.39-12.43-8.54-3.64-2.91-7-6.14-10.3-9.43-6.74-6.72-12.16-14.41-16.88-22.63-.2-.35-.36-.72-.58-1.16Z"/>
    <path class="st2" d="M86.61,76.57c-.62,0-1.25.04-1.87-.01-.48-.04-.64-.39-.39-.81.21-.36.48-.68.75-.99,4.5-5.38,9.51-10.22,15.28-14.23,3.66-2.54,7.49-4.8,11.53-6.67,2.83-1.3,5.71-2.48,8.58-3.68.41-.17.88-.26,1.33-.29.74-.05,1.01.22.91.96-.16,1.1-.58,2.12-1.49,2.79-.9.66-1.85,1.29-2.86,1.73-4.07,1.8-8.04,3.8-11.84,6.11-4.17,2.54-7.93,5.62-11.47,8.96-1.69,1.59-3.33,3.25-4.88,4.98-.8.89-1.67,1.3-2.83,1.19-.25-.02-.5,0-.75,0,0-.01,0-.03,0-.04Z"/>
    <path class="st2" d="M220.14,76.64c-1.44.05-2.88.25-4.31,0-.55-.1-1.08-.59-1.5-1.02-1.25-1.27-2.42-2.63-3.67-3.91-5.88-5.98-12.55-10.88-20.1-14.55-2.2-1.07-4.46-2.04-6.69-3.04-1.21-.54-1.29-.67-1.01-2,.08-.41.16-.81.25-1.22.22-1.05.42-1.18,1.45-.82,1.06.37,2.1.79,3.13,1.24,5.71,2.45,11.18,5.33,16.21,8.99,4.59,3.34,8.77,7.13,12.57,11.34,1.09,1.2,2.16,2.42,3.22,3.65.25.29.43.65.65.97l-.19.36Z"/>
    <path class="st2" d="M227.18,187.28c-.02-.24-.02-.54-.08-.81-.4-1.74-2.48-2.53-3.78-1.44-.56.47-.61.8-.12,1.34.66.73,1.33,1.47,2.05,2.15.3.29.89.69,1.08.58.36-.21.55-.74.77-1.16.09-.17.05-.4.08-.66Z"/>
    <path class="st2" d="M95.93,52.52c.03.52-1.8,2.14-2.19,2.03-.11-.03-.23-.1-.32-.18-.49-.44-.99-.88-1.47-1.33-.37-.34-.37-.7-.02-1.07.43-.45.82-.92,1.24-1.38.25-.28.63-.47.84-.12.44.73.96,1.32,1.72,1.72.12.06.17.27.21.33Z"/>
    <path class="st2" d="M208.22,52.6c.63-.69,1.13-1.23,1.62-1.77.36-.4.71-.36,1.05.03.24.28.47.58.76.82.94.77.95.78.13,1.71-.38.43-.74.87-1.19,1.4-.81-.75-1.58-1.46-2.36-2.19Z"/>
    <path d="M183.02,121.34c0,5.61-.15,9.68-1.11,13.67-.87,3.63-2.13,7.09-4.42,10.1-4.99,6.56-14.21,7.33-20.22,1.68-2.55-2.4-4.13-5.39-5.27-8.65-1.5-4.28-2.03-8.74-2.25-13.23-.18-3.66-.15-7.32.3-10.96.52-4.16,1.48-8.19,3.83-11.75,2.11-3.19,4.84-5.63,8.63-6.57,5.35-1.33,10.06-.06,13.92,3.94,3.43,3.55,4.92,8.03,5.81,12.75.66,3.49.78,7.02.79,9.03ZM158.92,123.2c.08,1.49.12,3.78.34,6.05.27,2.9.77,5.77,1.89,8.49.62,1.52,1.43,2.92,2.76,3.94,1.9,1.46,4.25,1.33,5.83-.46.73-.82,1.31-1.82,1.79-2.82.86-1.81,1.26-3.78,1.55-5.76.74-5.17.6-10.37.26-15.56-.17-2.61-.57-5.21-1.36-7.72-.49-1.55-1.06-3.07-2.07-4.38-2.06-2.69-5.32-2.7-7.4-.04-1.02,1.3-1.61,2.8-2.07,4.37-1.26,4.28-1.36,8.69-1.52,13.89Z"/>
    <path d="M219.61,123.58c-.14,3.8-.31,7.58-1.06,11.31-.65,3.24-1.56,6.39-3.33,9.22-2.71,4.34-6.58,6.78-11.76,6.75-3.75-.02-6.94-1.51-9.56-4.2-2.59-2.66-4.13-5.91-5.18-9.41-1.17-3.89-1.5-7.92-1.66-11.95-.18-4.54-.05-9.07.87-13.54.76-3.69,1.91-7.23,4.18-10.32,4.14-5.62,10.64-6.84,16.1-4.84,3.53,1.29,5.91,3.93,7.65,7.18,1.74,3.24,2.63,6.74,3.01,10.36.33,3.14.49,6.3.73,9.44ZM210.48,124.24c.04-3.45-.2-7.05-.77-10.63-.35-2.22-.89-4.4-1.82-6.46-.48-1.07-1.11-2.05-2.05-2.78-1.04-.82-2.2-1.11-3.51-.74-1.85.53-2.97,1.85-3.62,3.52-.66,1.69-1.21,3.46-1.58,5.24-.98,4.71-1,9.49-.86,14.27.09,2.91.36,5.81,1.07,8.64.43,1.74,1,3.43,1.98,4.95.27.42.57.82.9,1.19,2.13,2.42,5.31,1.93,7.04-.5,1.1-1.55,1.72-3.31,2.15-5.14.89-3.75,1.09-7.56,1.06-11.56Z"/>
    <path d="M222.58,97.97c1.09.06,1.91.06,2.72.15,2.97.32,5.95.6,8.91,1.01,4.35.61,7.52,3.08,10.02,6.57,2.16,3.01,3.26,6.42,3.93,10.01,1.07,5.77,1.05,11.57.5,17.39-.28,3.04-.86,6.02-2.1,8.81-1.83,4.11-4.8,7.06-9.19,8.37-1.22.36-2.52.61-3.79.64-3.12.07-6.23,0-9.35-.04-.95-.01-1.12-.32-.57-1.14.73-1.08.97-2.26.97-3.54-.04-13.72-.07-27.44-.1-41.16,0-.66-.04-1.33-.06-1.99-.06-1.48-.37-2.88-1.34-4.07-.17-.21-.27-.49-.55-1.01ZM232.12,124.72h.16c0,5.73,0,11.47,0,17.2,0,.54,0,1.08.04,1.62.09,1.13.36,1.34,1.52,1.25.25-.02.5-.05.74-.1,2.29-.47,3.84-1.86,4.86-3.92,1.44-2.93,1.98-6.09,2.18-9.29.27-4.44.29-8.89-.3-13.31-.42-3.11-1.11-6.13-2.82-8.83-1.09-1.73-2.5-3.09-4.45-3.84-1.6-.61-1.93-.4-1.93,1.27,0,5.98,0,11.97,0,17.95Z"/>
    <path d="M152.32,85.95c-37.9,0-75.8,0-113.7,0-1.29,0-2.59-.02-3.86.17-3.66.52-6.25,2.58-7.83,5.88-.39.8-.6,1.74-.67,2.64-.13,1.61-.13,3.24-.13,4.86,0,17.72,0,35.44,0,53.17,0,1.37.02,2.75.04,4.12.03,1.68.6,3.2,1.62,4.5,2.12,2.72,4.88,4.25,8.39,4.14,2.41-.08,4.82-.29,7.22-.47,3.9-.3,7.79-.63,11.69-.92,4.23-.32,8.46-.61,12.69-.91,4.11-.29,8.21-.62,12.32-.87,8.43-.51,16.86-1,25.29-1.47,3.61-.2,7.23-.34,10.84-.48.87-.03,1.75-.04,2.61.08,1.47.2,2.25,1.22,2.21,2.69-.04,1.45-.9,2.34-2.44,2.47-.5.04-1,.02-1.5.02-21.55-.02-43.1-.07-64.65-.03-5.07.01-10.14.3-15.21.55-4.46.22-7.95-1.38-10.4-5.13-.79-1.21-1.26-2.53-1.26-3.99,0-1.62,0-3.24,0-4.87-.01-17.68-.03-35.36-.04-53.04,0-1.33.05-2.66.02-3.99-.09-3.85,3.38-8.53,8.22-9.43,1.42-.27,2.89-.35,4.34-.35,13.06-.02,26.13,0,39.19,0,27.42,0,54.83,0,82.25,0,26.62,0,53.25.01,79.87.02,8.78,0,17.56,0,26.33,0,.75,0,1.5.02,2.25.04,4.07.06,7,2.08,9.15,5.37.8,1.23,1.31,2.61,1.36,4.1.07,1.87.12,3.74.12,5.61,0,13.48-.03,26.96-.04,40.43,0,5.07.05,10.15-.02,15.22-.05,4.32-2.33,7.25-6.09,9.12-1.31.65-2.74.98-4.22.96-1.33-.02-2.67.01-3.99-.09-7.64-.59-15.3-.47-22.95-.52-6.45-.04-12.9-.01-19.34-.01-12.02,0-24.04,0-36.07-.02-.54,0-1.08,0-1.62-.04-1.54-.09-2.33-.76-2.48-2.1-.15-1.27.74-2.61,2.02-2.94.52-.13,1.07-.18,1.61-.16,2.83.09,5.66.16,8.48.32,6.44.35,12.87.74,19.31,1.12,8.55.51,17.11.99,25.65,1.58,4.69.32,9.36.87,14.04,1.26,4.27.35,8.54.64,12.82.92.95.06,1.91.02,2.87,0,4.75-.1,9.51-4.32,9.49-9.72-.03-6.91.02-13.81.02-20.72,0-12.69-.03-25.38,0-38.06,0-2.68-.5-5.13-2.32-7.18-2.04-2.3-4.51-3.77-7.7-3.78-10.11,0-20.22-.04-30.33-.04-28.5,0-56.99,0-85.49,0v-.03Z"/>
    <path d="M145.38,107.89c-.49-.5-.81-.8-1.1-1.12-.68-.73-1.31-1.5-2.03-2.2-.99-.97-2.21-1.51-3.59-1.52-2.58-.02-5.16,0-7.74.04-1.06.02-1.26.23-1.26,1.27-.01,4.12,0,8.24.02,12.36,0,1.18.19,1.33,1.42,1.36,1.12.03,2.25-.04,3.37.04,2.02.15,3.52-.75,4.81-2.17.34-.38.73-.71,1.32-1.27.08.66.16,1.01.17,1.36.04,3.16.07,6.32.1,9.48,0,.34-.08.68-.15,1.27-.5-.38-.81-.56-1.06-.81-1.18-1.23-2.58-1.7-4.29-1.55-1.4.13-2.83.05-4.24.09-1.24.04-1.46.24-1.47,1.48-.01,6.16,0,12.31,0,18.47,0,1.58.49,2.93,1.66,4.03.37.35.82.72.73,1.42-.19.06-.38.18-.56.18-4.26.01-8.53,0-13.08,0,.3-.56.4-.93.63-1.16,1.25-1.25,1.5-2.8,1.49-4.48-.06-7.03-.08-14.06-.11-21.09-.03-6.78-.08-13.56-.03-20.34.01-2.15-.28-4.14-1.71-5.83-.1-.12-.13-.29-.24-.54.29-.12.53-.27.78-.32.28-.06.58-.04.87-.04,7.28-.05,14.56-.1,21.84-.16,1.07,0,2.14-.09,3.26-.13.07.21.19.4.19.59.01,3.65,0,7.29,0,11.3Z"/>
    <path d="M91,150.26c-4.25.11-8.26.22-12.28.32-.19,0-.37-.1-.7-.2.39-.56.69-1.05,1.05-1.48.67-.81.97-1.73.97-2.76,0-1.79,0-3.58-.02-5.36-.04-4.07-.1-8.15-.13-12.22,0-.93-.21-1.79-.57-2.65-3.08-7.45-6.11-14.93-9.19-22.38-.47-1.15-1.01-2.29-1.63-3.36-.34-.59-.92-1.04-1.42-1.52-.14-.14-.39-.16-.59-.24.06-.12.13-.23.19-.35.24-.1.48-.29.72-.3,3.7-.17,7.39-.32,11.09-.46.16,0,.32.07.58.14-.1.3-.13.6-.29.8-.88,1.1-.86,2.3-.42,3.54.74,2.12,1.5,4.23,2.27,6.34.98,2.69,1.98,5.38,2.99,8.07.19.52.25,1.16,1.08,1.45.19-.33.45-.64.56-1,1.53-4.66,3.04-9.33,4.55-13.99.14-.43.2-.89.31-1.34.26-1.04.03-1.97-.6-2.83-.29-.39-.55-.8-.87-1.27,1-.59,1.98-.3,2.89-.38.95-.09,1.91-.09,2.87-.13.96-.04,1.91-.08,2.87-.1.94-.02,1.88,0,3.03,0-.3.35-.46.57-.65.76-1.41,1.44-2.11,3.28-2.77,5.12-1.93,5.36-3.81,10.74-5.7,16.11-.8,2.27-1.6,4.55-2.36,6.84-.18.54-.29,1.14-.29,1.71,0,5.7.09,11.39.06,17.09-.01,1.97.37,3.7,1.81,5.12.22.22.34.54.59.96Z"/>
    <path d="M61.67,151.44c-.56-.34-.91-.53-1.24-.75-.92-.62-1.84-.66-2.81-.1-.79.46-1.59.92-2.43,1.26-3.08,1.26-6.03.95-8.79-.9-1.68-1.13-3.01-2.6-4.09-4.31-2.47-3.89-3.57-8.22-4.08-12.72-.58-5.06-.54-10.13-.05-15.2.38-3.91,1.2-7.72,2.78-11.34.93-2.13,2.22-4.01,3.98-5.52,3.36-2.9,7.21-3.33,11.36-2.1.36.11.71.23,1.06.36,1.14.42,2.19.43,3.11-.52.12-.13.36-.15.62-.26.09.29.23.51.23.73.01,4.85,0,9.7,0,14.61-.7-.06-.78-.55-.94-.95-.48-1.2-.91-2.41-1.44-3.58-.54-1.18-1.29-2.23-2.34-3.04-2.52-1.95-5.59-1.49-7.4,1.14-1.08,1.56-1.75,3.31-2.17,5.15-1.52,6.68-1.75,13.42-1,20.21.23,2.12.63,4.19,1.38,6.19.58,1.54,1.38,2.92,2.66,4.01,2.08,1.76,4.46,1.86,6.61.22,1.08-.82,1.99-1.8,2.5-3.06.62-1.54,1.13-3.12,1.7-4.68.16-.44.12-1.18.76-1.11.69.08.47.79.43,1.24-.42,4.56-.44,9.14-.3,13.71,0,.32-.04.65-.09,1.3Z"/>
    <path d="M269.01,102.92c.31.88.51,9.4.3,12.73-.02.3-.13.6-.19.9l-.29.06c-.2-.37-.44-.72-.59-1.11-.77-2.08-1.64-4.11-3.19-5.74-.59-.62-1.28-1.21-2.03-1.62-1.7-.92-3.34-.18-3.92,1.68-.47,1.49-.27,2.97.2,4.42.7,2.16,1.89,4.06,3.13,5.94,1.74,2.64,3.55,5.23,5.18,7.94,2.53,4.2,4.14,8.71,3.91,13.71-.13,2.8-.88,5.4-2.41,7.77-2.31,3.57-6.34,4.84-10.25,3.14-.94-.41-1.83-.98-2.69-1.55-1.33-.9-1.53-.91-2.63.19-.17.17-.38.29-.58.44-.56-.39-.41-.93-.42-1.39-.05-3.54-.08-7.07-.13-10.61-.01-.91-.05-1.83-.07-2.74-.01-.49,0-.98,0-1.56.69.13.72.65.91,1.02,1.05,2.08,2.07,4.17,3.15,6.23.36.69.87,1.32,1.35,1.94.63.81,1.46,1.37,2.44,1.65,2.18.62,4-.54,4.54-2.89.31-1.37.2-2.73-.14-4.08-.87-3.44-2.58-6.47-4.56-9.37-1.64-2.4-3.33-4.78-4.83-7.27-1.85-3.07-2.88-6.45-3.21-10.02-.23-2.54.21-4.98,1.36-7.27,2.01-4.02,5.03-5.04,8.98-4.13,1.07.25,2.1.78,3.06,1.34,1.1.64,2.12,1.17,3.3.26.05-.04.16,0,.32,0Z"/>
    <path d="M100.29,150.64c-2.81-.02-4.67-1.83-4.67-4.57,0-2.94,2.13-5.26,4.87-5.26,3.35,0,4.81,2.77,4.86,5.1.06,2.68-2.19,4.74-5.05,4.72Z"/>
    <path d="M65.03,146.59c.02-2.77,2.12-5.04,4.65-5.03,2.14,0,4.78,1.61,4.7,4.9-.07,2.87-2.01,4.96-4.68,4.92-2.74-.05-4.7-2.05-4.67-4.79Z"/>
    <path d="M197.43,183.49c-.58.67-1.14,1.32-1.79,2.07-.51-.68-1-1.32-1.58-2.1.59-.46,1.16-.92,1.77-1.4.46.41,1.03.91,1.6,1.42Z"/>
    <path d="M107.89,185.51c-.51-.73-.91-1.3-1.37-1.96.4-.48.83-1.01,1.33-1.6.63.45,1.23.89,1.86,1.34-.64.79-1.19,1.47-1.81,2.23Z"/>
    <path d="M136.02,45.79c3.9-2.86,8.21-4.16,13.04-3.37-2.23.31-4.51.42-6.67.98-2.19.57-4.25,1.58-6.38,2.39Z"/>
    <path d="M164.86,60.46c2.09-.81,4.11-1.73,6.04-2.83,1.96-1.12,3.53-2.66,4.92-4.43-.26,1.31-.98,2.31-1.94,3.1-2.47,2.04-5.3,3.39-8.43,4.12-.19.04-.39.03-.59.04Z"/>
    <path d="M196.04,71.37c-.59-.71-1.1-1.32-1.7-2.05.43-.45.9-.99,1.42-1.47.31-.29.62-.1.85.17.35.39.69.8.98,1.15-.53.75-1.02,1.45-1.56,2.21Z"/>
    <path d="M108.43,67.46c.58.67,1.08,1.24,1.61,1.86-.59.64-1.13,1.23-1.68,1.82-.58-.68-1.12-1.3-1.77-2.05.54-.48,1.16-1.03,1.84-1.62Z"/>
    <path d="M227.18,187.28c-.03.25,0,.49-.08.66-.22.42-.41.95-.77,1.16-.19.11-.78-.29-1.08-.58-.72-.68-1.39-1.41-2.05-2.15-.49-.54-.44-.87.12-1.34,1.3-1.09,3.38-.31,3.78,1.44.06.28.06.57.08.81Z"/>
    <path class="st2" d="M158.92,123.2c.15-5.2.26-9.61,1.52-13.89.46-1.57,1.06-3.06,2.07-4.37,2.08-2.67,5.34-2.66,7.4.04,1,1.31,1.58,2.83,2.07,4.38.79,2.51,1.19,5.11,1.36,7.72.34,5.19.48,10.39-.26,15.56-.28,1.98-.68,3.95-1.55,5.76-.48,1-1.06,2-1.79,2.82-1.59,1.79-3.93,1.92-5.83.46-1.33-1.02-2.13-2.42-2.76-3.94-1.12-2.72-1.62-5.59-1.89-8.49-.21-2.27-.26-4.56-.34-6.05Z"/>
    <path class="st2" d="M210.48,124.24c.03,4.01-.18,7.82-1.06,11.56-.43,1.83-1.05,3.59-2.15,5.14-1.73,2.43-4.91,2.92-7.04.5-.33-.37-.63-.78-.9-1.19-.98-1.52-1.55-3.22-1.98-4.95-.71-2.84-.98-5.73-1.07-8.64-.14-4.78-.13-9.57.86-14.27.37-1.78.92-3.54,1.58-5.24.65-1.67,1.77-2.99,3.62-3.52,1.31-.37,2.46-.08,3.51.74.94.74,1.57,1.71,2.05,2.78.93,2.06,1.47,4.24,1.82,6.46.56,3.58.81,7.18.77,10.63Z"/>
    <path class="st2" d="M232.12,124.72c0-5.98,0-11.97,0-17.95,0-1.67.33-1.88,1.93-1.27,1.95.75,3.35,2.1,4.45,3.84,1.71,2.7,2.4,5.72,2.82,8.83.59,4.43.57,8.88.3,13.31-.2,3.2-.73,6.36-2.18,9.29-1.01,2.05-2.56,3.45-4.86,3.92-.24.05-.49.09-.74.1-1.16.09-1.43-.12-1.52-1.25-.04-.54-.04-1.08-.04-1.62,0-5.73,0-11.47,0-17.2h-.16Z"/>
  </g>
  <g>
    <path class="st2" d="M89.57,199.28c-.37.15-.76.18-1.19.1-.43-.08-.85-.31-1.27-.67l-.78-.67-1.71,1.99-1.26-1.09,4.77-5.54,2.04,1.76c.41.36.7.73.85,1.13.15.4.19.79.1,1.18-.09.39-.28.76-.58,1.11-.28.32-.6.55-.96.7ZM88.63,197.83c.22-.02.43-.14.62-.36s.28-.44.27-.67-.14-.44-.38-.65l-.69-.59-1.2,1.39.69.59c.24.21.47.3.69.28Z"/>
    <path class="st2" d="M95.51,199.42l-2.56,3.55c-.26.35-.37.69-.35,1s.2.58.51.8c.32.23.63.31.93.24.31-.07.59-.28.84-.64l2.56-3.55,1.35.97-2.55,3.54c-.38.53-.81.9-1.28,1.11-.47.21-.96.29-1.45.22-.49-.07-.95-.26-1.39-.58-.44-.31-.76-.69-.97-1.12-.21-.43-.29-.9-.22-1.42s.29-1.03.67-1.56l2.55-3.54,1.35.97Z"/>
    <path class="st2" d="M100.6,211.51l.19-3.1-.34-.2-1.41,2.37-1.43-.85,3.73-6.28,2.4,1.43c.46.27.81.6,1.03.96.22.37.33.75.31,1.15-.02.4-.14.78-.36,1.15-.25.42-.58.72-1,.92-.42.2-.88.24-1.39.12l-.12,3.29-1.61-.96ZM101.09,207.12l.89.53c.26.16.5.2.71.14s.39-.21.54-.46c.14-.24.19-.47.14-.68-.05-.21-.21-.4-.47-.56l-.89-.53-.93,1.56Z"/>
    <path class="st2" d="M109.34,209.53l-.65,1.33,2,.98-.6,1.23-2-.98-.71,1.44,2.26,1.11-.63,1.28-3.76-1.84,3.22-6.56,3.76,1.84-.63,1.28-2.26-1.11Z"/>
    <path class="st2" d="M130.68,221.72l2.13.46-.29,1.34-3.76-.81,1.54-7.15,1.63.35-1.25,5.8Z"/>
    <path class="st2" d="M137.23,223.9c-.49-.38-.85-.88-1.09-1.49s-.31-1.27-.22-1.98c.09-.71.33-1.33.71-1.85s.86-.91,1.43-1.16c.57-.25,1.18-.33,1.81-.25.64.08,1.2.32,1.69.7s.85.88,1.08,1.48c.23.6.3,1.26.21,1.97-.09.71-.33,1.33-.71,1.86s-.86.92-1.43,1.17c-.57.25-1.17.33-1.81.25s-1.2-.32-1.69-.7ZM140.51,222.58c.37-.34.6-.83.68-1.47.08-.64-.01-1.17-.29-1.6-.28-.42-.68-.67-1.22-.74-.55-.07-1.01.06-1.38.4-.37.34-.6.83-.69,1.48-.08.64.01,1.17.29,1.6.28.42.69.67,1.23.74.54.07,1-.07,1.37-.41Z"/>
    <path class="st2" d="M146.17,219.64c.31-.56.73-.98,1.26-1.28.53-.3,1.13-.44,1.79-.42.81.03,1.5.28,2.06.75s.93,1.11,1.1,1.91l-1.83-.06c-.13-.31-.31-.55-.56-.71s-.53-.26-.84-.27c-.51-.02-.93.16-1.26.54-.33.37-.5.88-.52,1.51-.02.64.12,1.15.43,1.54.31.39.71.59,1.23.61.32,0,.6-.06.86-.21.25-.15.45-.38.6-.68l1.83.06c-.22.79-.62,1.4-1.21,1.83-.59.44-1.29.64-2.1.62-.66-.02-1.25-.2-1.76-.53s-.91-.78-1.18-1.35c-.27-.57-.4-1.22-.38-1.94.02-.72.19-1.36.5-1.92Z"/>
    <path class="st2" d="M159.96,223.79l-2.54.16-.33,1.31-1.74.11,2-7.45,1.92-.12,2.93,7.14-1.76.11-.49-1.26ZM159.44,222.44l-1.02-2.62-.66,2.72,1.68-.11Z"/>
    <path class="st2" d="M166.85,222.93l2.16-.32.2,1.36-3.8.56-1.06-7.23,1.65-.24.86,5.87Z"/>
    <path class="st2" d="M190.83,209.91l.54,1.32-1.67.69,2.24,5.44-1.54.63-2.24-5.44-1.67.69-.54-1.32,4.88-2.01Z"/>
    <path class="st2" d="M199.72,213.68l-2.52-1.81-.35.18,1.26,2.45-1.48.76-3.34-6.5,2.48-1.28c.48-.25.93-.37,1.36-.36.43,0,.81.12,1.14.35.33.23.59.53.79.91.22.43.31.88.25,1.33-.05.46-.27.87-.64,1.24l2.72,1.85-1.67.86ZM196.27,210.94l.92-.47c.27-.14.44-.32.5-.53.06-.21.03-.45-.11-.71-.13-.25-.29-.41-.5-.48-.21-.07-.45-.04-.72.1l-.92.47.83,1.61Z"/>
    <path class="st2" d="M201.9,204.05l2.33,3.7c.23.37.5.6.79.69.3.09.61.03.94-.17.33-.21.52-.47.57-.78.05-.31-.04-.65-.28-1.02l-2.33-3.7,1.41-.89,2.33,3.69c.35.55.53,1.09.55,1.61.02.52-.09.99-.34,1.42-.25.43-.6.79-1.05,1.07-.46.29-.92.45-1.4.49s-.95-.07-1.4-.33c-.45-.25-.85-.65-1.2-1.21l-2.33-3.69,1.41-.89Z"/>
    <path class="st2" d="M213,205.12c-.42.1-.83.09-1.22-.04-.39-.13-.74-.38-1.04-.75l1.41-1.07c.18.2.38.31.58.33.21.02.4-.04.59-.18.2-.15.31-.31.36-.5.04-.18,0-.36-.14-.53-.11-.14-.25-.23-.41-.25-.16-.03-.33-.02-.51.02s-.42.11-.72.22c-.44.15-.81.25-1.12.31s-.63.03-.96-.08c-.33-.11-.64-.34-.91-.71-.41-.54-.55-1.1-.42-1.69.13-.58.5-1.1,1.08-1.55.6-.46,1.2-.67,1.8-.64.6.03,1.12.31,1.56.83l-1.43,1.09c-.15-.18-.33-.28-.53-.3-.2-.02-.39.04-.58.19-.16.12-.25.27-.28.43-.03.17.02.33.15.51.14.19.34.27.58.25s.59-.1,1.03-.25c.45-.14.83-.24,1.13-.29s.63-.03.95.07c.33.1.62.32.89.67.25.33.4.69.45,1.08.05.39-.02.78-.19,1.17s-.47.74-.88,1.05c-.4.3-.81.5-1.23.61Z"/>
    <path class="st2" d="M217.62,192.01l.95,1.06-1.35,1.21,3.93,4.38-1.24,1.11-3.93-4.38-1.35,1.21-.95-1.06,3.94-3.53Z"/>
    <path class="st2" d="M221.74,189.89l1.07,1.02,1.54-1.61.99.95-1.54,1.61,1.16,1.11,1.74-1.82,1.03.99-2.89,3.02-5.28-5.05,2.89-3.02,1.03.99-1.74,1.82Z"/>
    <path class="st2" d="M227.58,181.71c.58-.23,1.17-.28,1.79-.17.61.12,1.2.4,1.76.86.56.45.96.96,1.2,1.54.25.58.32,1.17.22,1.79s-.38,1.2-.83,1.75l-1.61,1.99-5.69-4.59,1.61-1.99c.45-.56.97-.95,1.54-1.18ZM230.95,185.11c-.07-.5-.36-.97-.88-1.39-.52-.42-1.04-.62-1.55-.58s-.97.3-1.36.79l-.5.61,3.31,2.67.5-.61c.39-.49.56-.99.49-1.49Z"/>
  </g>
</svg>